HIERARCHY
ROOT root
{
	OFFSET	0	260	24
	CHANNELS 6  Xposition Yposition Zposition Xrotation Yrotation Zrotation
	JOINT spine_3
	{
		OFFSET	0	81.6	10.2
		CHANNELS 3  Xrotation Yrotation Zrotation
		JOINT spine_4
		{
			OFFSET	0	110.4	14.6
			CHANNELS 3  Xrotation Yrotation Zrotation
			JOINT neck_1
			{
				OFFSET	0	71.8	-50.3
				CHANNELS 3  Xrotation Yrotation Zrotation
				JOINT neck_2
				{
					OFFSET	0	86.2	-25.8
					CHANNELS 3  Xrotation Yrotation Zrotation
					JOINT head_ee
					{
						OFFSET	0	179.8	-8.7
						CHANNELS 3  Xrotation Yrotation Zrotation
						End Site
						{
							OFFSET	1	0	0
						}
					}
				}
			}
			JOINT left_clavicle
			{
				OFFSET	-43.2	22.4	-70.8
				CHANNELS 3  Xrotation Yrotation Zrotation
				JOINT left_shoulder
				{
					OFFSET	-93.9	-5.79999	48.7
					CHANNELS 3  Xrotation Yrotation Zrotation
					JOINT left_elbow
					{
						OFFSET	-291.4	-30.8	15.2
						CHANNELS 3  Xrotation Yrotation Zrotation
						JOINT left_lowarm_twist
						{
							OFFSET	-110.7	-3.89999	13.6
							CHANNELS 3  Xrotation Yrotation Zrotation
							JOINT left_hand
							{
								OFFSET	-110.7	-3.89999	13.6
								CHANNELS 3  Xrotation Yrotation Zrotation
								JOINT left_ee
								{
									OFFSET	-80.8	-5.10001	12.1
									CHANNELS 3  Xrotation Yrotation Zrotation
									End Site
									{
										OFFSET	1	0	0
									}
								}
							}
						}
					}
				}
			}
			JOINT right_clavicle
			{
				OFFSET	43.2	22.4	-70.8
				CHANNELS 3  Xrotation Yrotation Zrotation
				JOINT right_shoulder
				{
					OFFSET	93.9	-5.79999	48.7
					CHANNELS 3  Xrotation Yrotation Zrotation
					JOINT right_elbow
					{
						OFFSET	291.4	-30.8	15.2
						CHANNELS 3  Xrotation Yrotation Zrotation
						JOINT right_lowarm_twist
						{
							OFFSET	110.7	-3.89999	13.6
							CHANNELS 3  Xrotation Yrotation Zrotation
							JOINT right_hand
							{
								OFFSET	110.7	-3.89999	13.6
								CHANNELS 3  Xrotation Yrotation Zrotation
								JOINT right_ee
								{
									OFFSET	80.8	-5.10001	12.1
									CHANNELS 3  Xrotation Yrotation Zrotation
									End Site
									{
										OFFSET	1	0	0
									}
								}
							}
						}
					}
				}
			}
		}
	}
	JOINT spine_2
	{
		OFFSET	0	-124.9	-9.1
		CHANNELS 3  Xrotation Yrotation Zrotation
		JOINT spine_1
		{
			OFFSET	0	-112	10
			CHANNELS 3  Xrotation Yrotation Zrotation
			JOINT left_hip
			{
				OFFSET	-82.8	-137.5	0.300001
				CHANNELS 3  Xrotation Yrotation Zrotation
				JOINT left_knee
				{
					OFFSET	-28.2	-396.7	2.2
					CHANNELS 3  Xrotation Yrotation Zrotation
					JOINT left_ankle
					{
						OFFSET	-11.7	-411.3	35.4
						CHANNELS 3  Xrotation Yrotation Zrotation
						JOINT left_toes
						{
							OFFSET	0	-60	-88.6
							CHANNELS 3  Xrotation Yrotation Zrotation
							JOINT left_foot_ee
							{
								OFFSET	-22.5	-16.5	-42.2
								CHANNELS 3  Xrotation Yrotation Zrotation
								End Site
								{
									OFFSET	1	0	0
								}
							}
						}
					}
				}
			}
			JOINT right_hip
			{
				OFFSET	82.8	-137.5	0.300001
				CHANNELS 3  Xrotation Yrotation Zrotation
				JOINT right_knee
				{
					OFFSET	28.2	-396.7	2.2
					CHANNELS 3  Xrotation Yrotation Zrotation
					JOINT right_ankle
					{
						OFFSET	11.7	-411.3	35.4
						CHANNELS 3  Xrotation Yrotation Zrotation
						JOINT right_toes
						{
							OFFSET	0	-60	-88.6
							CHANNELS 3  Xrotation Yrotation Zrotation
							JOINT right_foot_ee
							{
								OFFSET	22.5	-16.5	-42.2
								CHANNELS 3  Xrotation Yrotation Zrotation
								End Site
								{
									OFFSET	1	0	0
								}
							}
						}
					}
				}
			}
		}
	}
}
MOTION
Frames: 10
Frame Time: 0.02
1159.7025195 733.437 -1753.21015905 -1.31501592349 35.5757382053 2.85054670416 2.23909 0.296759 -0.12536 2.23918 0.273236 -0.170655 -5.69783 6.1684 -3.00058 -5.63226 13.6032 -1.91236 -0.0 0.0 -0.0 5.86444 23.6557 10.8173 -30.0115 -13.3509 55.882 0.749917 -20.3793 0.134794 -8.95074 -0.399973 1.07097 -0.250589 5.40656 0.616935 -0.0 0.0 -0.0 9.35466 6.8185 -18.4584 -16.7989 41.381 -51.8586 1.08351 28.2233 -0.2724 -55.5068 4.72984 -4.93947 -4.96663 -19.1437 22.6855 0.0 0.0 0.0 -2.23912 -0.277417 0.163771 -2.23909 -0.266434 0.181092 26.2306 -11.7187 -1.2844 -46.8533 -0.959295 6.92965 27.6125 23.5593 -3.79577 0.383715 -0.0 -0.0 -0.0 0.0 -0.0 22.9817 31.0323 -12.7143 -20.2647 -0.292398 -3.07984 23.7682 -14.6243 3.21668 1.47408 -0.0 -0.0 0.0 0.0 0.0 
1165.21244155 733.437 -1757.33381642 -1.29701716646 34.448793528 2.81917793677 2.23909 0.296759 -0.12536 2.23918 0.273236 -0.170655 -5.69783 6.1684 -3.00058 -5.63226 13.6032 -1.91236 -0.0 0.0 -0.0 5.86444 23.6557 10.8173 -30.0115 -13.3509 55.882 0.749917 -20.3793 0.134794 -8.95074 -0.399973 1.07097 -0.250589 5.40656 0.616935 -0.0 0.0 -0.0 9.35466 6.8185 -18.4584 -16.7989 41.381 -51.8586 1.08351 28.2233 -0.2724 -55.5068 4.72984 -4.93947 -4.96663 -19.1437 22.6855 0.0 0.0 0.0 -2.23912 -0.277417 0.163771 -2.23909 -0.266434 0.181092 26.2306 -11.7187 -1.2844 -46.8533 -0.959295 6.92965 27.6125 23.5593 -3.79577 0.383715 -0.0 -0.0 -0.0 0.0 -0.0 22.9817 31.0323 -12.7143 -20.2647 -0.292398 -3.07984 23.7682 -14.6243 3.21668 1.47408 -0.0 -0.0 0.0 0.0 0.0 
1112.26133953 736.063 -1778.90659699 -0.849350374264 38.625856265 2.09497145968 2.07656 0.268497 0.0990107 2.07665 0.280764 0.0553638 -7.36026 5.78302 -1.89601 -7.34914 12.1184 -0.686004 -0.0 0.0 -0.0 6.00476 24.2948 10.9712 -35.2086 -11.2195 55.3038 0.758135 -20.584 0.137669 -8.16846 -0.358381 0.979972 0.156613 4.29149 2.82938 -0.0 0.0 -0.0 9.8069 5.8837 -19.421 -12.6883 42.7578 -48.3738 1.20124 30.754 -0.33037 -55.9999 4.7899 -4.95934 -4.73469 -18.4579 21.6371 0.0 0.0 0.0 -2.07657 -0.279642 -0.0607796 -2.07653 -0.282943 -0.0428619 31.5396 -11.7748 -2.33413 -46.9401 -0.966238 6.94105 29.5923 22.5977 -4.0067 0.663531 -0.0 -0.0 -0.0 0.0 -0.0 13.1733 31.5389 -9.27656 -13.1319 -0.314232 -1.98638 24.7908 -16.3914 3.35432 1.05723 -0.0 -0.0 0.0 0.0 0.0 
1093.49657896 733.187 -1785.53484419 -0.476783267127 40.3745859093 1.95869828682 1.93368 0.0453557 0.12163 1.93366 0.0639957 0.112941 -7.31898 6.40079 -1.70163 -7.31003 13.1278 -0.367075 -0.0 0.0 -0.0 5.46228 24.2337 10.2221 -35.5347 -10.749 56.6948 0.773546 -20.9664 0.143136 -7.4094 -0.319219 0.891144 0.489441 5.46646 5.50045 -0.0 0.0 -0.0 10.3598 1.73348 -20.4849 -11.9284 42.9065 -47.2472 1.36924 34.1465 -0.420552 -56.8908 4.89881 -4.99391 -5.15219 -19.0729 23.9669 0.0 0.0 0.0 -1.93367 -0.0623699 -0.113847 -1.93368 -0.0694879 -0.109647 32.4762 -11.5133 -2.78191 -47.0791 -0.977402 6.9593 28.0563 21.572 -3.80978 0.121336 -0.0 -0.0 -0.0 0.0 -0.0 11.5326 29.4398 -9.02469 -15.6678 -0.322071 -2.37535 29.9644 -18.8247 3.98083 1.3518 -0.0 -0.0 0.0 0.0 0.0 
1072.87554864 730.6 -1798.51956721 0.103795981408 40.013134024 1.84201708187 1.58683 -0.0257566 0.14325 1.5868 -0.00280972 0.14552 -7.59852 6.95866 -1.26892 -7.60093 13.8684 0.215201 -0.0 0.0 -0.0 5.02597 24.5269 9.60723 -36.0519 -10.3727 57.7126 0.771629 -20.9189 0.14245 -7.17432 -0.30733 0.86353 0.698289 5.64115 6.94719 -0.0 0.0 -0.0 10.8131 0.611576 -21.3821 -10.8002 43.1343 -46.172 1.38148 34.3837 -0.427442 -58.6511 5.11549 -5.05721 -5.59547 -19.7845 26.418 0.0 0.0 0.0 -1.58683 0.00313428 -0.145513 -1.58684 -0.00613144 -0.145418 34.7825 -11.7603 -3.61124 -46.1787 -0.905881 6.8406 26.8605 20.8704 -3.65768 0.68398 -0.0 -0.0 -0.0 0.0 -0.0 8.80022 28.0299 -8.76314 -16.976 -0.319383 -2.57603 31.556 -18.6367 4.1526 0.860772 -0.0 -0.0 0.0 0.0 0.0 
1057.7745636 725.525 -1806.26166411 0.992209427247 40.2257946354 1.19758035236 1.50567 0.12275 0.250326 1.50562 0.160743 0.227799 -8.00732 8.00262 -1.04764 -8.02594 15.6787 0.715244 -0.0 0.0 -0.0 3.67125 23.8651 7.76148 -35.9484 -11.6811 60.6423 0.783913 -21.2225 0.146867 -6.68119 -0.282759 0.805451 1.02034 6.24148 9.31229 -0.0 0.0 -0.0 11.0055 0.184005 -21.761 -10.5759 42.4544 -45.7982 1.57095 37.8874 -0.539223 -58.9894 5.15734 -5.06861 -6.02493 -22.0846 27.4808 0.0 0.0 0.0 -1.50565 -0.160881 -0.227702 -1.50566 -0.175044 -0.217003 34.297 -16.0275 -6.48743 -26.5868 0.159595 4.04043 16.9037 23.1806 -2.43133 -3.61073 0.0 0.0 -0.0 0.0 -0.0 6.61984 28.9586 -8.39564 -18.167 -0.312951 -2.75866 32.9989 -18.4222 4.30331 0.27279 -0.0 -0.0 0.0 0.0 0.0 
1039.54927624 721.145 -1812.09270712 1.46733220817 41.7265400445 0.868439552311 2.16764 0.105383 -0.159522 2.16761 0.0788672 -0.174164 -5.5564 8.33802 -1.19121 -5.50359 16.2634 0.303355 -0.0 0.0 -0.0 2.23805 21.9466 5.71397 -34.5316 -11.9323 64.5801 0.702178 -19.1797 0.118638 -5.94827 -0.247169 0.718749 1.39007 7.28273 12.1663 -0.0 0.0 -0.0 11.303 -0.743625 -22.3226 -9.8229 41.5391 -45.9985 1.49502 36.5209 -0.493313 -59.8122 5.25941 -5.09529 -6.70733 -23.1416 31.2392 0.0 0.0 0.0 -2.16763 -0.0827663 0.172345 -2.16765 -0.0716319 0.177262 34.7776 -17.5353 -7.47922 -20.1442 0.293897 3.06142 7.5565 25.0196 -1.13215 -4.22417 0.0 0.0 -0.0 0.0 -0.0 6.62126 27.2093 -8.79261 -17.2282 -0.318338 -2.61472 34.7263 -20.6217 4.52522 -2.10359 0.0 0.0 0.0 0.0 0.0 
1005.86609234 721.141 -1821.17643985 -0.691839312257 43.8406271389 2.85681205272 2.45838 0.163352 -0.468407 2.45808 0.0873265 -0.488326 -8.02187 8.32214 -2.32005 -8.02913 17.1711 -0.473489 -0.0 0.0 -0.0 1.37899 20.9546 4.4258 -34.7084 -13.103 66.7433 0.724778 -19.7499 0.126169 -5.76376 -0.238385 0.696853 1.87455 5.9322 14.9202 -0.0 0.0 -0.0 11.2263 -3.00473 -21.9773 -9.04012 41.0068 -46.4311 1.57956 38.0392 -0.54452 -60.7518 5.3764 -5.12397 -7.4377 -26.0124 33.5472 0.0 0.0 0.0 -2.45832 -0.10322 0.485216 -2.45845 -0.0721359 0.4908 32.9799 -19.6816 -9.23586 -15.1787 0.321899 2.3003 6.41608 25.4962 -0.966867 -3.615 0.0 0.0 -0.0 0.0 -0.0 7.86292 24.6269 -9.74848 -16.0478 -0.321762 -2.43364 32.8875 -21.0794 4.34088 -4.50686 0.0 0.0 0.0 0.0 0.0 
1002.44603007 721.141 -1817.52018684 -0.698540385054 44.4100051594 2.86643673099 2.45838 0.163352 -0.468407 2.45808 0.0873265 -0.488326 -8.02187 8.32214 -2.32005 -8.02913 17.1711 -0.473489 -0.0 0.0 -0.0 1.37899 20.9546 4.4258 -34.7084 -13.103 66.7433 0.724778 -19.7499 0.126169 -5.76376 -0.238385 0.696853 1.87455 5.9322 14.9202 -0.0 0.0 -0.0 11.2263 -3.00473 -21.9773 -9.04012 41.0068 -46.4311 1.57956 38.0392 -0.54452 -60.7518 5.3764 -5.12397 -7.4377 -26.0124 33.5472 0.0 0.0 0.0 -2.45832 -0.10322 0.485216 -2.45845 -0.0721359 0.4908 32.9799 -19.6816 -9.23586 -15.1787 0.321899 2.3003 6.41608 25.4962 -0.966867 -3.615 0.0 0.0 -0.0 0.0 -0.0 7.86292 24.6269 -9.74848 -16.0478 -0.321762 -2.43364 32.8875 -21.0794 4.34088 -4.50686 0.0 0.0 0.0 0.0 0.0 
997.543959414 721.141 -1812.14987114 -0.708633458578 45.2369470925 2.88075429996 2.45838 0.163352 -0.468407 2.45808 0.0873265 -0.488326 -8.02187 8.32214 -2.32005 -8.02913 17.1711 -0.473489 -0.0 0.0 -0.0 1.37899 20.9546 4.4258 -34.7084 -13.103 66.7433 0.724778 -19.7499 0.126169 -5.76376 -0.238385 0.696853 1.87455 5.9322 14.9202 -0.0 0.0 -0.0 11.2263 -3.00473 -21.9773 -9.04012 41.0068 -46.4311 1.57956 38.0392 -0.54452 -60.7518 5.3764 -5.12397 -7.4377 -26.0124 33.5472 0.0 0.0 0.0 -2.45832 -0.10322 0.485216 -2.45845 -0.0721359 0.4908 32.9799 -19.6816 -9.23586 -15.1787 0.321899 2.3003 6.41608 25.4962 -0.966867 -3.615 0.0 0.0 -0.0 0.0 -0.0 7.86292 24.6269 -9.74848 -16.0478 -0.321762 -2.43364 32.8875 -21.0794 4.34088 -4.50686 0.0 0.0 0.0 0.0 0.0 
